External Loads File
version=1
nRows=77
nColumns=13
Range=5.000000e-03-10 seconds
endheader
time 	forceRightX 	forceRightY 	forceRightZ 	pointRightX 	pointRightY 	pointRightZ 	forceLeftX 	forceLeftY 	forceLeftZ 	pointLeftX 	pointLeftY 	pointLeftZ 		
2.505000 -35.273060 -231.927457 -0.000000 0.161103 0.376254 -0.108695 -176.243283 1045.794400 -0.000000 0.433051 0.245312 -0.358969
2.510000 -45.203427 -234.329644 -0.000000 0.164311 0.382820 -0.108762 -168.561333 1048.269340 -0.000000 0.431271 0.238386 -0.358938
2.515000 -55.151347 -235.906728 -0.000000 0.167624 0.389228 -0.108917 -159.801086 1047.924625 -0.000000 0.429175 0.231626 -0.358836
2.520000 -65.142859 -236.309198 -0.000000 0.171190 0.395752 -0.109098 -148.728602 1044.359480 -0.000000 0.426975 0.224867 -0.358823
2.525000 -74.462229 -235.386620 -0.000000 0.174967 0.401950 -0.109273 -137.191392 1036.824637 -0.000000 0.424486 0.218399 -0.358764
2.530000 -83.098240 -232.943369 -0.000000 0.178912 0.408243 -0.109569 -123.967292 1025.083029 -0.000000 0.421900 0.212012 -0.358687
2.535000 -90.665563 -229.096310 -0.000000 0.183005 0.414328 -0.109807 -109.804464 1008.680551 -0.000000 0.419131 0.205639 -0.358718
2.540000 -96.960049 -224.111749 -0.000000 0.187228 0.420148 -0.110086 -95.160408 987.276917 -0.000000 0.416120 0.199381 -0.358731
2.545000 -102.055631 -218.304166 -0.000000 0.191671 0.425969 -0.110304 -79.920848 960.708313 -0.000000 0.412860 0.193488 -0.358670
2.550000 -105.992426 -212.102587 -0.000000 0.196133 0.431592 -0.110502 -64.766640 928.995970 -0.000000 0.409367 0.187741 -0.358581
2.555000 -109.009298 -205.848658 -0.000000 0.201023 0.436911 -0.110817 -49.955708 892.577863 -0.000000 0.405830 0.182208 -0.358415
2.560000 -111.632679 -199.636957 -0.000000 0.206463 0.442196 -0.110527 -34.736444 852.275863 -0.000000 0.402050 0.176823 -0.358344
2.565000 -113.448479 -193.962232 -0.000000 0.211379 0.447344 -0.111495 -22.375065 808.949509 -0.000000 0.398168 0.171700 -0.358223
2.570000 -115.129211 -188.584766 -0.000000 0.216612 0.452176 -0.111494 -11.249235 763.777398 -0.000000 0.394015 0.166754 -0.358061
2.575000 -116.772550 -183.423581 -0.000000 0.222015 0.456697 -0.111698 -1.893170 717.892250 -0.000000 0.389689 0.161953 -0.357925
2.580000 -118.590223 -178.174648 -0.000000 0.227682 0.460964 -0.111789 5.940530 672.461600 -0.000000 0.385089 0.157468 -0.357805
2.585000 -120.631947 -172.510976 -0.000000 0.233372 0.465117 -0.111908 12.183982 628.568282 -0.000000 0.380264 0.153128 -0.357661
2.590000 -122.836409 -166.106955 -0.000000 0.238978 0.468955 -0.112132 16.721580 587.127426 -0.000000 0.375141 0.149191 -0.357609
2.595000 -125.603338 -158.254794 -0.000000 0.245301 0.472562 -0.112209 21.374516 548.746736 -0.000000 0.369703 0.145564 -0.357650
2.600000 -128.476879 -148.882773 -0.000000 0.251461 0.475880 -0.112377 25.239387 513.784926 -0.000000 0.363957 0.142223 -0.357551
2.605000 -131.480725 -137.577068 -0.000000 0.257854 0.478947 -0.112515 29.388865 482.155859 -0.000000 0.357887 0.139204 -0.357565
2.610000 -134.128559 -124.417114 -0.000000 0.263810 0.481641 -0.112599 33.234141 453.464102 -0.000000 0.351527 0.136605 -0.357679
2.615000 -136.571017 -108.904451 -0.000000 0.270301 0.484115 -0.112713 38.336294 426.814592 -0.000000 0.344925 0.134272 -0.357440
2.620000 -138.294354 -91.337298 -0.000000 0.276386 0.486288 -0.112762 43.526999 401.293025 -0.000000 0.338093 0.132433 -0.357282
2.625000 -139.304169 -71.464736 -0.000000 0.282614 0.488180 -0.112819 49.329439 375.790179 -0.000000 0.331108 0.131042 -0.357289
2.630000 -139.378288 -49.341939 -0.000000 0.288737 0.489757 -0.112925 55.191957 349.349502 -0.000000 0.324046 0.130089 -0.357018
2.635000 -138.405645 -24.879346 -0.000000 0.294771 0.491037 -0.112930 60.888327 321.175532 -0.000000 0.316870 0.129535 -0.356699
2.640000 -136.324881 1.988175 -0.000000 0.300713 0.491950 -0.112936 66.047023 290.858177 -0.000000 0.309671 0.129375 -0.356358
2.645000 -133.213792 31.377444 -0.000000 0.306327 0.492632 -0.112857 70.294781 258.408717 -0.000000 0.302441 0.129502 -0.356065
2.650000 -129.290390 63.676000 -0.000000 0.311709 0.492864 -0.112719 73.616173 224.106535 -0.000000 0.295197 0.129962 -0.355800
2.655000 -124.895146 99.387867 -0.000000 0.316878 0.492771 -0.112460 76.021980 188.486115 -0.000000 0.288003 0.130722 -0.355579
2.660000 -120.498593 139.055763 -0.000000 0.321783 0.492406 -0.112144 77.603398 152.216784 -0.000000 0.280922 0.131832 -0.355247
2.665000 -116.595520 183.156340 -0.000000 0.326308 0.491610 -0.111951 78.583514 115.958124 -0.000000 0.273791 0.133336 -0.354837
2.670000 -113.820913 231.801869 -0.000000 0.330469 0.489996 -0.111555 79.107865 80.420265 -0.000000 0.266752 0.135134 -0.354491
2.675000 -112.566764 284.832902 -0.000000 0.334642 0.488360 -0.111236 79.380134 46.193225 -0.000000 0.259672 0.137238 -0.354286
2.680000 -113.544579 341.466412 -0.000000 0.338803 0.486405 -0.110838 79.379939 13.883442 -0.000000 0.252700 0.139544 -0.354204
2.685000 -117.476853 400.511483 -0.000000 0.342743 0.483908 -0.110570 79.073170 -16.036707 -0.000000 0.245910 0.142321 -0.354283
2.690000 -124.624804 460.540057 -0.000000 0.346601 0.480738 -0.110059 78.391099 -43.251866 -0.000000 0.239305 0.145327 -0.354047
2.695000 -135.151268 519.863177 -0.000000 0.350487 0.477749 -0.109014 77.283001 -67.474684 -0.000000 0.232823 0.148764 -0.353732
2.700000 -148.008621 576.966560 -0.000000 0.354391 0.473449 -0.107951 75.660625 -88.588028 -0.000000 0.226367 0.152498 -0.353369
2.705000 -163.470622 630.011443 -0.000000 0.358472 0.469556 -0.107708 73.748934 -106.252830 -0.000000 0.220130 0.156716 -0.352686
2.710000 -179.693735 677.902308 -0.000000 0.362870 0.465046 -0.108253 71.530347 -120.390069 -0.000000 0.213975 0.161370 -0.352215
2.715000 -197.058656 719.308093 -0.000000 0.367015 0.459750 -0.108769 69.385233 -130.678882 -0.000000 0.208007 0.166145 -0.351717
2.720000 -214.867178 753.575035 -0.000000 0.371061 0.454295 -0.108035 67.532863 -136.994636 -0.000000 0.202175 0.171164 -0.351365
2.725000 -230.859695 780.890185 -0.000000 0.375756 0.448685 -0.107457 65.911779 -139.482945 -0.000000 0.196524 0.176394 -0.351155
2.730000 -245.406405 801.048611 -0.000000 0.380421 0.442682 -0.107134 64.906796 -138.276955 -0.000000 0.191103 0.181800 -0.351086
2.735000 -257.979029 814.456685 -0.000000 0.385102 0.436473 -0.107104 64.663655 -133.817413 -0.000000 0.185924 0.187447 -0.351066
2.740000 -269.406914 821.481732 -0.000000 0.389351 0.430153 -0.106953 65.461682 -126.594811 -0.000000 0.181009 0.193308 -0.351014
2.745000 -278.585034 823.466621 -0.000000 0.393660 0.423721 -0.106692 67.171727 -117.380224 -0.000000 0.176313 0.199359 -0.351043
2.750000 -284.910615 821.873505 -0.000000 0.397930 0.416858 -0.106627 69.688847 -107.008614 -0.000000 0.171885 0.205796 -0.351005
2.755000 -289.389662 817.689416 -0.000000 0.402194 0.409906 -0.106537 73.057364 -96.202819 -0.000000 0.167688 0.212424 -0.351007
2.760000 -292.336468 812.033001 -0.000000 0.406308 0.402843 -0.106486 77.117558 -85.667302 -0.000000 0.163785 0.219324 -0.350984
2.765000 -294.241248 805.801399 -0.000000 0.409933 0.395533 -0.106527 81.615479 -75.962714 -0.000000 0.160186 0.226434 -0.351051
2.770000 -294.634838 800.099375 -0.000000 0.413677 0.388047 -0.106504 86.162590 -67.599631 -0.000000 0.156941 0.233692 -0.351103
2.775000 -294.246724 795.451525 -0.000000 0.417181 0.380421 -0.106560 90.524271 -60.848285 -0.000000 0.154000 0.241087 -0.351094
2.780000 -292.498648 792.688583 -0.000000 0.420579 0.372515 -0.106545 94.394080 -56.056145 -0.000000 0.151471 0.248710 -0.351139
2.785000 -290.647551 791.760956 -0.000000 0.423554 0.364581 -0.106413 97.603900 -53.300825 -0.000000 0.149303 0.256377 -0.351186
2.790000 -288.157214 793.071826 -0.000000 0.426172 0.356545 -0.106451 99.842339 -52.773521 -0.000000 0.147505 0.264106 -0.351354
2.795000 -284.269757 796.910736 -0.000000 0.428436 0.348366 -0.106513 100.777752 -54.584691 -0.000000 0.146046 0.272020 -0.351549
2.800000 -279.065839 803.106427 -0.000000 0.430381 0.340097 -0.106557 100.161892 -58.616740 -0.000000 0.145087 0.280049 -0.351690
2.805000 -272.232187 811.501292 -0.000000 0.431954 0.331748 -0.106618 97.822168 -64.671837 -0.000000 0.144496 0.288165 -0.351689
2.810000 -263.561894 821.782219 -0.000000 0.433290 0.323399 -0.106905 93.725245 -72.423779 -0.000000 0.144399 0.296400 -0.351716
2.815000 -253.059884 833.471007 -0.000000 0.434016 0.315132 -0.107027 87.987821 -81.444391 -0.000000 0.144735 0.304751 -0.351811
2.820000 -239.027020 846.515217 -0.000000 0.434348 0.306368 -0.107095 80.667146 -91.436122 -0.000000 0.145379 0.313130 -0.351926
2.825000 -223.911740 859.613688 -0.000000 0.434261 0.297927 -0.107215 72.285303 -101.674560 -0.000000 0.146451 0.321498 -0.351942
2.830000 -206.819241 872.499205 -0.000000 0.433783 0.289568 -0.107266 62.992615 -111.798857 -0.000000 0.147829 0.329959 -0.351968
2.835000 -188.110056 884.609438 -0.000000 0.433030 0.281169 -0.106974 53.026523 -121.359944 -0.000000 0.149683 0.338340 -0.351911
2.840000 -166.753579 895.734576 -0.000000 0.431502 0.272782 -0.107210 42.393566 -130.044329 -0.000000 0.151924 0.347006 -0.351919
2.845000 -146.512790 904.830234 -0.000000 0.430034 0.264473 -0.106740 31.761287 -137.392580 -0.000000 0.154513 0.355082 -0.351901
2.850000 -124.481763 912.158152 -0.000000 0.427502 0.256257 -0.107094 20.830987 -143.357724 -0.000000 0.157529 0.363215 -0.351908
2.855000 -102.604685 917.133748 -0.000000 0.424986 0.248175 -0.107030 10.014711 -147.740107 -0.000000 0.160904 0.371249 -0.351941
2.860000 -81.024533 919.504779 -0.000000 0.422207 0.240177 -0.106930 -0.567468 -150.427996 -0.000000 0.164651 0.379066 -0.351976
2.865000 -58.593622 919.130867 -0.000000 0.419020 0.232353 -0.106829 -11.011102 -151.288389 -0.000000 0.168729 0.387221 -0.351965
2.870000 -38.538262 915.644506 -0.000000 0.415547 0.224863 -0.106668 -20.670107 -150.245511 -0.000000 0.173123 0.394869 -0.351908
2.875000 -18.866951 909.149335 -0.000000 0.411741 0.217447 -0.106406 -29.740329 -147.222864 -0.000000 0.178175 0.402285 -0.351819
2.880000 -2.095669 899.626671 -0.000000 0.407816 0.210207 -0.106212 -37.676515 -142.322179 -0.000000 0.183116 0.409375 -0.351417
2.885000 12.784944 887.167679 -0.000000 0.403645 0.203170 -0.106046 -44.536290 -135.629624 -0.000000 0.188112 0.416390 -0.351403
